#!OML:ASF E:/inclinewalkrobotboard/Project1/Captureday1/Session1/subject1.ASF
:FULLY-SPECIFIED
:DEGREES
51
root 0 0 0 1.4267495310675162 -3.5390043028272666 1.8903379585507725
lowerback 11.966999171622763 0.8929915320875903 -0.09789307680142956
upperback -4.434256324951093 1.1193964564942342 -0.629309412564251
thorax -11.554054381229019 0.514195074989275 -0.8687180030097553
lowerneck -6.095867644664329 1.6528253451543808 4.623794785105993
upperneck 18.44741406680018 3.1568701527948044 -8.26936530447777
head 6.779661021078706 1.163439665408963 -3.189017995835081
rclavicle -1.7445511458308935E-16 -9.704816596387672E-16
rhumerus 22.223651490458884 15.948028620964449 -46.54309544630994
rradius 74.310224923965
rwrist 27.890988921070278
rhand -34.855356273622775 -59.75670083541064
rfingers 7.12502
rthumb -8.015281398373176 -89.56921430747772
lclavicle -1.727201665181732E-16 -9.48997415419961E-16
lhumerus 22.793964832052954 -12.79587368151586 43.631474101078474
lradius 71.3212844702078
lwrist -23.637240808097193
lhand -45.336883247632045 -73.19748580018742
lfingers 7.12502
lthumb -18.09411766658321 -43.979402479043415
rfemur -25.582248798328017 -2.144524498944321 16.702035332473827
rtibia 54.67592161181766
rfoot -27.30016005759248 -16.454048380382307
rtoes -17.652415456271527
lfemur -21.813084830886154 1.2345394259307445 -18.178666419188364
ltibia 48.65637280466677
lfoot -23.740635815498326 -3.605297308555887
ltoes -15.430035478182248
52
root 0 0 0 1.4270039823963359 -3.5399972158645325 1.889208401985677
lowerback 11.967081439450297 0.8935700796343582 -0.09651334568409731
upperback -4.434615176910521 1.1203133893126136 -0.6294132155679878
thorax -11.554418844560072 0.5146091079450933 -0.8697397790731461
lowerneck -6.0953744960010745 1.652924193615161 4.624301470133078
upperneck 18.447409157828897 3.1570999835779454 -8.269734993499508
head 6.779595954223884 1.1635358332038486 -3.189219959991345
rclavicle -1.7437835573763157E-16 -9.704716503848244E-16
rhumerus 22.226051955378345 15.949582788837875 -46.54160684098495
rradius 74.31245551257412
rwrist 27.89208656772389
rhand -34.85612698072624 -59.76043526557608
rfingers 7.12502
rthumb -8.016050044233253 -89.57296341365168
lclavicle -1.727364535170988E-16 -9.489781673667502E-16
lhumerus 22.793211526623846 -12.795664584575922 43.63203848386522
lradius 71.3206756470709
lwrist -23.63681208372863
lhand -45.33660319307457 -73.19613369067672
lfingers 7.12502
lthumb -18.09384011087663 -43.97804863111095
rfemur -25.587288119096524 -2.1469281440810954 16.69844980134918
rtibia 54.68143540639919
rfoot -27.306608459967922 -16.457555643464367
rtoes -17.65963962354879
lfemur -21.80898196450709 1.23343414324231 -18.179372887038348
ltibia 48.65011216384916
lfoot -23.73602731728613 -3.6047378427012764
ltoes -15.42614406012655
53
root 0 0 0 1.4271471918697025 -3.540155004543701 1.889177811102141
lowerback 11.967124373131933 0.8936605045668451 -0.09637751071519796
upperback -4.434795515863124 1.1204396483635108 -0.6294924178660427
thorax -11.55463621170864 0.5146680971471403 -0.8699206904307054
lowerneck -6.095035393486048 1.653061754063262 4.624542326100698
upperneck 18.447371207549676 3.157319507135021 -8.270016889411735
head 6.779525152087019 1.1636278313856794 -3.1893257629653498
rclavicle -1.7433849519308738E-16 -9.704597584851668E-16
rhumerus 22.227176387115144 15.950313405788998 -46.540941701528766
rradius 74.31350841159411
rwrist 27.892596036194227
rhand -34.856502053764224 -59.762218442465695
rfingers 7.12502
rthumb -8.016420382135806 -89.57471694664287
lclavicle -1.7276672618428502E-16 -9.490076568214734E-16
lhumerus 22.791973066567575 -12.795350338964907 43.632893566167176
lradius 71.31970105335049
lwrist -23.63616397692263
lhand -45.336186187373116 -73.19397757826543
lfingers 7.12502
lthumb -18.09345467197705 -43.975989576692655
rfemur -25.592976467461384 -2.149637645950669 16.694428870652715
rtibia 54.68774786681772
rfoot -27.313636250898462 -16.461387987191653
rtoes -17.667683173982958
lfemur -21.80273548477071 1.2318549707343454 -18.180551293979374
ltibia 48.641199238495375
lfoot -23.72923808939449 -3.6041899215946587
ltoes -15.42079887833648
54
root 0 0 0 1.4271677914685519 -3.539814003656786 1.889732617121432
lowerback 11.967129617738825 0.8934597460804353 -0.0969382473579341
upperback -4.43480212492986 1.1201048285528132 -0.6295244530051497
thorax -11.554679816046475 0.5145188835006498 -0.869590384346565
lowerneck -6.094924155573594 1.6531596712278975 4.624543413196272
upperneck 18.44734283782268 3.15743560231679 -8.270130247800925
head 6.779487136947376 1.1636763959897514 -3.1893359269696244
rclavicle -1.7433268076691497E-16 -9.704572652902145E-16
rhumerus 22.227094133174056 15.950256613738157 -46.54099226560649
rradius 74.31343628404227
rwrist 27.89255791819338
rhand -34.856475455396975 -59.762089937418594
rfingers 7.12502
rthumb -8.016396164733067 -89.57457952166077
lclavicle -1.72780759582942E-16 -9.490205484362806E-16
lhumerus 22.791007751862207 -12.795108762316511 43.63356073982318
lradius 71.31894248800184
lwrist -23.63566084965484
lhand -45.33586190948376 -73.19230799439346
lfingers 7.12502
lthumb -18.09314877518412 -43.974337719138575
rfemur -25.598656534195246 -2.1523293438567173 16.690428462927756
rtibia 54.69399996883087
rfoot -27.320613566806543 -16.46520394917762
rtoes -17.67564484015976
lfemur -21.79764132545196 1.2305863095360645 -18.18151412873318
ltibia 48.63404964245795
lfoot -23.723750045127506 -3.6037796430437647
ltoes -15.416508393431318
